<?xml version="1.0" encoding="UTF-8"?>
<!--Generator: Apple Native CoreSVG 149-->
<!DOCTYPE svg
PUBLIC "-//W3C//DTD SVG 1.1//EN"
       "http://www.w3.org/Graphics/SVG/1.1/DTD/svg11.dtd">
<svg version="1.1" xmlns="http://www.w3.org/2000/svg" xmlns:xlink="http://www.w3.org/1999/xlink" width="3300" height="2200">
 <!--glyph: "uni100946.medium", point size: 100.000000, font version: "Version 16.0d18e1", template writer version: "8"-->
 <g id="Notes">
  <rect height="2200" id="artboard" style="fill:white;opacity:1" width="3300" x="0" y="0"/>
  <line id="" style="fill:none;stroke:black;opacity:1;stroke-width:0.5;" x1="263" x2="3036" y1="292" y2="292"/>
  <text style="stroke:none;fill:black;font-family:-apple-system,&quot;SF Pro Display&quot;,&quot;SF Pro Text&quot;,Helvetica,sans-serif;font-weight:bold;" transform="matrix(1 0 0 1 263 322)">Weight/Scale Variations</text>
  <text style="stroke:none;fill:black;font-family:-apple-system,&quot;SF Pro Display&quot;,&quot;SF Pro Text&quot;,Helvetica,sans-serif;text-anchor:middle;" transform="matrix(1 0 0 1 559.711 322)">Ultralight</text>
  <text style="stroke:none;fill:black;font-family:-apple-system,&quot;SF Pro Display&quot;,&quot;SF Pro Text&quot;,Helvetica,sans-serif;text-anchor:middle;" transform="matrix(1 0 0 1 856.422 322)">Thin</text>
  <text style="stroke:none;fill:black;font-family:-apple-system,&quot;SF Pro Display&quot;,&quot;SF Pro Text&quot;,Helvetica,sans-serif;text-anchor:middle;" transform="matrix(1 0 0 1 1153.13 322)">Light</text>
  <text style="stroke:none;fill:black;font-family:-apple-system,&quot;SF Pro Display&quot;,&quot;SF Pro Text&quot;,Helvetica,sans-serif;text-anchor:middle;" transform="matrix(1 0 0 1 1449.84 322)">Regular</text>
  <text style="stroke:none;fill:black;font-family:-apple-system,&quot;SF Pro Display&quot;,&quot;SF Pro Text&quot;,Helvetica,sans-serif;text-anchor:middle;" transform="matrix(1 0 0 1 1746.56 322)">Medium</text>
  <text style="stroke:none;fill:black;font-family:-apple-system,&quot;SF Pro Display&quot;,&quot;SF Pro Text&quot;,Helvetica,sans-serif;text-anchor:middle;" transform="matrix(1 0 0 1 2043.27 322)">Semibold</text>
  <text style="stroke:none;fill:black;font-family:-apple-system,&quot;SF Pro Display&quot;,&quot;SF Pro Text&quot;,Helvetica,sans-serif;text-anchor:middle;" transform="matrix(1 0 0 1 2339.98 322)">Bold</text>
  <text style="stroke:none;fill:black;font-family:-apple-system,&quot;SF Pro Display&quot;,&quot;SF Pro Text&quot;,Helvetica,sans-serif;text-anchor:middle;" transform="matrix(1 0 0 1 2636.69 322)">Heavy</text>
  <text style="stroke:none;fill:black;font-family:-apple-system,&quot;SF Pro Display&quot;,&quot;SF Pro Text&quot;,Helvetica,sans-serif;text-anchor:middle;" transform="matrix(1 0 0 1 2933.4 322)">Black</text>
  <line id="" style="fill:none;stroke:black;opacity:1;stroke-width:0.5;" x1="263" x2="3036" y1="1903" y2="1903"/>
  <g id="" transform="matrix(1 0 0 1 263 1933)">
   <path d="M9.24805 0.830078C13.5547 0.830078 17.1387-2.74414 17.1387-7.05078C17.1387-11.3574 13.5449-14.9316 9.23828-14.9316C4.94141-14.9316 1.36719-11.3574 1.36719-7.05078C1.36719-2.74414 4.95117 0.830078 9.24805 0.830078ZM9.24805-0.654297C5.70312-0.654297 2.87109-3.49609 2.87109-7.05078C2.87109-10.6055 5.69336-13.4473 9.23828-13.4473C12.793-13.4473 15.6348-10.6055 15.6445-7.05078C15.6543-3.49609 12.8027-0.654297 9.24805-0.654297ZM6.39648-6.31836L8.50586-6.31836L8.50586-4.19922C8.50586-3.75977 8.79883-3.45703 9.22852-3.45703C9.67773-3.45703 9.9707-3.75977 9.9707-4.19922L9.9707-6.31836L12.0996-6.31836C12.5391-6.31836 12.8418-6.61133 12.8418-7.04102C12.8418-7.48047 12.5391-7.7832 12.0996-7.7832L9.9707-7.7832L9.9707-9.89258C9.9707-10.3418 9.67773-10.6445 9.22852-10.6445C8.79883-10.6445 8.50586-10.3418 8.50586-9.89258L8.50586-7.7832L6.39648-7.7832C5.94727-7.7832 5.64453-7.48047 5.64453-7.04102C5.64453-6.61133 5.94727-6.31836 6.39648-6.31836Z"/>
  </g>
  <g id="" transform="matrix(1 0 0 1 281.506 1933)">
   <path d="M11.709 2.91016C17.1582 2.91016 21.6699-1.61133 21.6699-7.05078C21.6699-12.5 17.1484-17.0117 11.6992-17.0117C6.25977-17.0117 1.74805-12.5 1.74805-7.05078C1.74805-1.61133 6.26953 2.91016 11.709 2.91016ZM11.709 1.25C7.09961 1.25 3.41797-2.44141 3.41797-7.05078C3.41797-11.6602 7.08984-15.3516 11.6992-15.3516C16.3086-15.3516 20-11.6602 20.0098-7.05078C20.0195-2.44141 16.3184 1.25 11.709 1.25ZM7.98828-6.23047L10.8789-6.23047L10.8789-3.32031C10.8789-2.83203 11.2109-2.5 11.6895-2.5C12.1777-2.5 12.5195-2.83203 12.5195-3.32031L12.5195-6.23047L15.4297-6.23047C15.918-6.23047 16.25-6.5625 16.25-7.04102C16.25-7.5293 15.918-7.87109 15.4297-7.87109L12.5195-7.87109L12.5195-10.7617C12.5195-11.2695 12.1777-11.6016 11.6895-11.6016C11.2109-11.6016 10.8789-11.2598 10.8789-10.7617L10.8789-7.87109L7.98828-7.87109C7.48047-7.87109 7.14844-7.5293 7.14844-7.04102C7.14844-6.5625 7.49023-6.23047 7.98828-6.23047Z"/>
  </g>
  <g id="" transform="matrix(1 0 0 1 304.924 1933)">
   <path d="M14.9707 5.66406C21.9336 5.66406 27.6953-0.0976562 27.6953-7.05078C27.6953-14.0137 21.9238-19.7754 14.9609-19.7754C8.00781-19.7754 2.25586-14.0137 2.25586-7.05078C2.25586-0.0976562 8.01758 5.66406 14.9707 5.66406ZM14.9707 3.84766C8.93555 3.84766 4.08203-1.01562 4.08203-7.05078C4.08203-13.0957 8.92578-17.9492 14.9609-17.9492C21.0059-17.9492 25.8594-13.0957 25.8691-7.05078C25.8789-1.01562 21.0156 3.84766 14.9707 3.84766ZM10.0586-6.14258L14.0625-6.14258L14.0625-2.12891C14.0625-1.5918 14.4336-1.2207 14.9512-1.2207C15.4883-1.2207 15.8594-1.5918 15.8594-2.12891L15.8594-6.14258L19.8828-6.14258C20.4102-6.14258 20.791-6.51367 20.791-7.03125C20.791-7.56836 20.4199-7.94922 19.8828-7.94922L15.8594-7.94922L15.8594-11.9531C15.8594-12.5098 15.4883-12.8809 14.9512-12.8809C14.4336-12.8809 14.0625-12.5 14.0625-11.9531L14.0625-7.94922L10.0586-7.94922C9.50195-7.94922 9.13086-7.56836 9.13086-7.03125C9.13086-6.51367 9.51172-6.14258 10.0586-6.14258Z"/>
  </g>
  <text style="stroke:none;fill:black;font-family:-apple-system,&quot;SF Pro Display&quot;,&quot;SF Pro Text&quot;,Helvetica,sans-serif;font-weight:bold;" transform="matrix(1 0 0 1 263 1953)">Design Variations</text>
  <text style="stroke:none;fill:black;font-family:-apple-system,&quot;SF Pro Display&quot;,&quot;SF Pro Text&quot;,Helvetica,sans-serif;" transform="matrix(1 0 0 1 263 1971)">Symbols are supported in up to nine weights and three scales.</text>
  <text style="stroke:none;fill:black;font-family:-apple-system,&quot;SF Pro Display&quot;,&quot;SF Pro Text&quot;,Helvetica,sans-serif;" transform="matrix(1 0 0 1 263 1989)">For optimal layout with text and other symbols, vertically align</text>
  <text style="stroke:none;fill:black;font-family:-apple-system,&quot;SF Pro Display&quot;,&quot;SF Pro Text&quot;,Helvetica,sans-serif;" transform="matrix(1 0 0 1 263 2007)">symbols with the adjacent text.</text>
  <line id="" style="fill:none;stroke:#00AEEF;stroke-width:0.5;opacity:1.0;" x1="776" x2="776" y1="1919" y2="1933"/>
  <g id="" transform="matrix(1 0 0 1 776 1933)">
   <path d="M3.31055 0.126953C3.82812 0.126953 4.08203-0.0683594 4.26758-0.605469L5.52734-4.0625L11.2891-4.0625L12.5488-0.605469C12.7344-0.0683594 12.9883 0.126953 13.4961 0.126953C14.0137 0.126953 14.3457-0.185547 14.3457-0.673828C14.3457-0.839844 14.3164-0.986328 14.2383-1.20117L9.6582-13.3887C9.43359-13.9941 9.0332-14.2871 8.4082-14.2871C7.80273-14.2871 7.39258-13.9941 7.17773-13.3984L2.59766-1.19141C2.51953-0.976562 2.49023-0.830078 2.49023-0.664062C2.49023-0.175781 2.80273 0.126953 3.31055 0.126953ZM6.00586-5.53711L8.37891-12.1094L8.42773-12.1094L10.8008-5.53711Z"/>
  </g>
  <line id="" style="fill:none;stroke:#00AEEF;stroke-width:0.5;opacity:1.0;" x1="792.836" x2="792.836" y1="1919" y2="1933"/>
  <text style="stroke:none;fill:black;font-family:-apple-system,&quot;SF Pro Display&quot;,&quot;SF Pro Text&quot;,Helvetica,sans-serif;font-weight:bold;" transform="matrix(1 0 0 1 776 1953)">Margins</text>
  <text style="stroke:none;fill:black;font-family:-apple-system,&quot;SF Pro Display&quot;,&quot;SF Pro Text&quot;,Helvetica,sans-serif;" transform="matrix(1 0 0 1 776 1971)">Leading and trailing margins on the left and right side of each symbol</text>
  <text style="stroke:none;fill:black;font-family:-apple-system,&quot;SF Pro Display&quot;,&quot;SF Pro Text&quot;,Helvetica,sans-serif;" transform="matrix(1 0 0 1 776 1989)">can be adjusted by modifying the x-location of the margin guidelines.</text>
  <text style="stroke:none;fill:black;font-family:-apple-system,&quot;SF Pro Display&quot;,&quot;SF Pro Text&quot;,Helvetica,sans-serif;" transform="matrix(1 0 0 1 776 2007)">Modifications are automatically applied proportionally to all</text>
  <text style="stroke:none;fill:black;font-family:-apple-system,&quot;SF Pro Display&quot;,&quot;SF Pro Text&quot;,Helvetica,sans-serif;" transform="matrix(1 0 0 1 776 2025)">scales and weights.</text>
  <g id="" transform="matrix(1 0 0 1 1289 1933)">
   <path d="M2.8418 1.86523L4.54102 3.57422C5.40039 4.44336 6.38672 4.38477 7.31445 3.35938L17.4902-7.85156C17.7539-7.76367 18.0273-7.7832 18.3398-7.8418L19.4043-8.03711L20.0684-7.36328L20.0293-6.80664C19.9902-6.30859 20.1172-5.92773 20.6055-5.44922L21.3672-4.70703C21.8457-4.22852 22.4609-4.19922 22.9297-4.66797L25.8398-7.58789C26.3086-8.05664 26.2891-8.65234 25.8105-9.13086L25.0391-9.89258C24.5605-10.3711 24.1895-10.5273 23.7109-10.4883L23.1348-10.4395L22.4902-11.0742L22.7344-12.1973C22.8613-12.7637 22.7051-13.2031 22.1191-13.7891L19.9219-15.9766C16.582-19.2969 12.1484-19.2188 9.25781-16.3281C8.83789-15.918 8.80859-15.3418 9.04297-14.9512C9.27734-14.5898 9.73633-14.3555 10.3809-14.5215C11.8457-14.8633 13.3691-14.9219 14.7949-13.9844L14.209-12.5293C14.0137-12.0508 13.9844-11.6504 14.1113-11.2891L3.04688-0.898438C2.06055 0.0195312 1.98242 0.996094 2.8418 1.86523ZM10.752-15.957C13.1836-17.7344 16.4746-17.4316 18.7012-15.2051L21.1328-12.793C21.3672-12.5586 21.4062-12.373 21.3379-12.0312L21.0156-10.5469L22.5195-9.0625L23.5059-9.12109C23.7598-9.13086 23.8379-9.11133 24.0332-8.91602L24.6094-8.33984L22.168-5.89844L21.5918-6.47461C21.3965-6.66992 21.3672-6.74805 21.377-7.01172L21.4453-7.98828L19.9512-9.47266L18.4277-9.21875C18.1055-9.15039 17.959-9.17969 17.7148-9.41406L15.7129-11.416C15.459-11.6504 15.4297-11.8164 15.5859-12.1875L16.4648-14.2773C14.9023-15.7324 12.8711-16.3574 10.8398-15.7617C10.6836-15.7227 10.625-15.8496 10.752-15.957ZM5.27344 2.30469L4.10156 1.14258C3.63281 0.683594 3.74023 0.341797 4.14062-0.0195312L14.9512-10.1953L16.416-8.71094L6.42578 2.27539C6.07422 2.67578 5.74219 2.77344 5.27344 2.30469Z"/>
  </g>
  <text style="stroke:none;fill:black;font-family:-apple-system,&quot;SF Pro Display&quot;,&quot;SF Pro Text&quot;,Helvetica,sans-serif;font-weight:bold;" transform="matrix(1 0 0 1 1289 1953)">Exporting</text>
  <text style="stroke:none;fill:black;font-family:-apple-system,&quot;SF Pro Display&quot;,&quot;SF Pro Text&quot;,Helvetica,sans-serif;" transform="matrix(1 0 0 1 1289 1971)">Symbols should be outlined when exporting to ensure the</text>
  <text style="stroke:none;fill:black;font-family:-apple-system,&quot;SF Pro Display&quot;,&quot;SF Pro Text&quot;,Helvetica,sans-serif;" transform="matrix(1 0 0 1 1289 1989)">design is preserved when submitting to Xcode.</text>
  <text id="template-version" style="stroke:none;fill:black;font-family:-apple-system,&quot;SF Pro Display&quot;,&quot;SF Pro Text&quot;,Helvetica,sans-serif;text-anchor:end;" transform="matrix(1 0 0 1 3036 1933)">Template v.2.0</text>
  <text style="stroke:none;fill:black;font-family:-apple-system,&quot;SF Pro Display&quot;,&quot;SF Pro Text&quot;,Helvetica,sans-serif;text-anchor:end;" transform="matrix(1 0 0 1 3036 1951)">Requires Xcode 12 or greater</text>
  <text style="stroke:none;fill:black;font-family:-apple-system,&quot;SF Pro Display&quot;,&quot;SF Pro Text&quot;,Helvetica,sans-serif;text-anchor:end;" transform="matrix(1 0 0 1 3036 1969)">Generated from house.circle</text>
  <text style="stroke:none;fill:black;font-family:-apple-system,&quot;SF Pro Display&quot;,&quot;SF Pro Text&quot;,Helvetica,sans-serif;text-anchor:end;" transform="matrix(1 0 0 1 3036 1987)">Typeset at 100 points</text>
  <text style="stroke:none;fill:black;font-family:-apple-system,&quot;SF Pro Display&quot;,&quot;SF Pro Text&quot;,Helvetica,sans-serif;" transform="matrix(1 0 0 1 263 726)">Small</text>
  <text style="stroke:none;fill:black;font-family:-apple-system,&quot;SF Pro Display&quot;,&quot;SF Pro Text&quot;,Helvetica,sans-serif;" transform="matrix(1 0 0 1 263 1156)">Medium</text>
  <text style="stroke:none;fill:black;font-family:-apple-system,&quot;SF Pro Display&quot;,&quot;SF Pro Text&quot;,Helvetica,sans-serif;" transform="matrix(1 0 0 1 263 1586)">Large</text>
 </g>
 <g id="Guides">
  <g id="H-reference" style="fill:#27AAE1;stroke:none;" transform="matrix(1 0 0 1 339 696)">
   <path d="M0.976562 0L3.66211 0L12.9883-24.4629L45.752-24.4629L55.127 0L57.7637 0L30.6152-70.459L28.125-70.459ZM29.3457-67.1387L29.4434-67.1387L44.873-26.709L13.8672-26.709Z"/>
  </g>
  <line id="Baseline-S" style="fill:none;stroke:#27AAE1;opacity:1;stroke-width:0.5;" x1="263" x2="3036" y1="696" y2="696"/>
  <line id="Capline-S" style="fill:none;stroke:#27AAE1;opacity:1;stroke-width:0.5;" x1="263" x2="3036" y1="625.541" y2="625.541"/>
  <g id="H-reference" style="fill:#27AAE1;stroke:none;" transform="matrix(1 0 0 1 339 1126)">
   <path d="M0.976562 0L3.66211 0L12.9883-24.4629L45.752-24.4629L55.127 0L57.7637 0L30.6152-70.459L28.125-70.459ZM29.3457-67.1387L29.4434-67.1387L44.873-26.709L13.8672-26.709Z"/>
  </g>
  <line id="Baseline-M" style="fill:none;stroke:#27AAE1;opacity:1;stroke-width:0.5;" x1="263" x2="3036" y1="1126" y2="1126"/>
  <line id="Capline-M" style="fill:none;stroke:#27AAE1;opacity:1;stroke-width:0.5;" x1="263" x2="3036" y1="1055.54" y2="1055.54"/>
  <g id="H-reference" style="fill:#27AAE1;stroke:none;" transform="matrix(1 0 0 1 339 1556)">
   <path d="M0.976562 0L3.66211 0L12.9883-24.4629L45.752-24.4629L55.127 0L57.7637 0L30.6152-70.459L28.125-70.459ZM29.3457-67.1387L29.4434-67.1387L44.873-26.709L13.8672-26.709Z"/>
  </g>
  <line id="Baseline-L" style="fill:none;stroke:#27AAE1;opacity:1;stroke-width:0.5;" x1="263" x2="3036" y1="1556" y2="1556"/>
  <line id="Capline-L" style="fill:none;stroke:#27AAE1;opacity:1;stroke-width:0.5;" x1="263" x2="3036" y1="1485.54" y2="1485.54"/>
  <line id="left-margin" style="fill:none;stroke:#00AEEF;stroke-width:0.5;opacity:1.0;" x1="1391.3" x2="1391.3" y1="1030.79" y2="1150.12"/>
  <line id="right-margin" style="fill:none;stroke:#00AEEF;stroke-width:0.5;opacity:1.0;" x1="1508.39" x2="1508.39" y1="1030.79" y2="1150.12"/>
 </g>
 <g id="Symbols">
  <g id="Black-L" transform="matrix(1 0 0 1 2854.05 1556)">
   <path d="M79.3457 32.8613C116.748 32.8613 147.412 2.19727 147.412-35.2051C147.412-72.6074 116.748-103.271 79.2969-103.271C41.8945-103.271 11.2793-72.6074 11.2793-35.2051C11.2793 2.19727 41.9434 32.8613 79.3457 32.8613ZM79.3457 12.4023C52.9785 12.4023 31.7383-8.83789 31.7383-35.2051C31.7383-61.5723 52.9297-82.8125 79.2969-82.8125C105.664-82.8125 126.953-61.5723 126.953-35.2051C127.002-8.83789 105.713 12.4023 79.3457 12.4023ZM41.8945-38.4277C41.8945-35.9375 43.6523-34.1309 46.3867-34.1309C47.5586-34.1309 48.8281-34.7168 49.8535-35.6445L77.5879-58.8867C78.7109-59.8633 80.0293-59.8145 81.2012-58.8867L108.838-35.6445C109.912-34.7168 111.133-34.1309 112.354-34.1309C114.99-34.1309 116.846-35.8398 116.846-38.3789C116.846-39.6973 116.211-41.0645 115.039-42.041L106.787-48.9746L106.787-61.9141C106.787-63.3301 105.908-64.209 104.443-64.209L98.0469-64.209C96.6309-64.209 95.6543-63.3301 95.6543-61.9141L95.6543-58.3008L85.2051-67.041C81.7383-70.0195 77.0508-70.0195 73.584-67.041L43.6523-41.9922C42.5293-41.0156 41.8945-39.6484 41.8945-38.4277ZM52.2949-12.2559C52.2949-7.71484 55.4199-4.73633 60.4004-4.73633L98.3398-4.73633C103.223-4.73633 106.445-7.71484 106.445-12.2559L106.445-31.0059L81.25-52.0508C80.0781-53.125 78.6621-53.0762 77.4414-52.0508L52.2949-31.0059ZM87.207-12.6953L71.4844-12.6953L71.4844-29.0527C71.4844-30.5664 72.4609-31.4453 73.8281-31.4453L84.8633-31.4453C86.377-31.4453 87.207-30.5664 87.207-29.0527Z"/>
  </g>
  <g id="Heavy-L" transform="matrix(1 0 0 1 2558.39 1556)">
   <path d="M78.2715 31.7871C115.088 31.7871 145.312 1.5625 145.312-35.2051C145.312-72.0215 115.039-102.246 78.2715-102.246C41.4551-102.246 11.2793-72.0215 11.2793-35.2051C11.2793 1.5625 41.5039 31.7871 78.2715 31.7871ZM78.2715 14.0137C51.0254 14.0137 29.0527-7.95898 29.0527-35.2051C29.0527-62.5 50.9766-84.4727 78.2715-84.4727C105.518-84.4727 127.49-62.5 127.539-35.2051C127.539-7.95898 105.566 14.0137 78.2715 14.0137ZM40.4785-38.9648C40.4785-36.7676 42.0898-35.1074 44.5801-35.1074C45.7031-35.1074 46.7773-35.6445 47.7051-36.4746L76.5137-60.5957C77.6855-61.6211 78.9551-61.5723 80.127-60.5957L108.838-36.4746C109.814-35.6445 110.938-35.1074 112.012-35.1074C114.404-35.1074 116.064-36.6211 116.064-38.916C116.064-40.1367 115.527-41.3574 114.502-42.2363L106.055-49.3164L106.055-62.2559C106.055-63.623 105.176-64.5508 103.76-64.5508L98.0957-64.5508C96.7285-64.5508 95.8008-63.623 95.8008-62.2559L95.8008-57.9102L83.8379-67.9199C80.5176-70.752 76.123-70.752 72.8027-67.9199L42.0898-42.1875C41.0645-41.3086 40.4785-40.0879 40.4785-38.9648ZM50.7812-11.9629C50.7812-7.42188 53.8086-4.58984 58.6426-4.58984L97.9492-4.58984C102.686-4.58984 105.762-7.42188 105.762-11.9629L105.762-32.7637L80.2246-54.1504C79.0039-55.2246 77.5879-55.1758 76.3672-54.1504L50.7812-32.7637ZM86.2793-11.9629L70.2637-11.9629L70.2637-29.4434C70.2637-30.957 71.2402-31.8359 72.6562-31.8359L83.9355-31.8359C85.4004-31.8359 86.2793-30.957 86.2793-29.4434Z"/>
  </g>
  <g id="Bold-L" transform="matrix(1 0 0 1 2262.88 1556)">
   <path d="M77.0996 30.5664C113.232 30.5664 142.92 0.878906 142.92-35.2539C142.92-71.3379 113.184-101.074 77.0508-101.074C40.9668-101.074 11.2793-71.3379 11.2793-35.2539C11.2793 0.878906 41.0156 30.5664 77.0996 30.5664ZM77.0996 15.8203C48.8281 15.8203 26.0742-6.98242 26.0742-35.2539C26.0742-63.5254 48.7793-86.2793 77.0508-86.2793C105.371-86.2793 128.125-63.5254 128.174-35.2539C128.174-6.98242 105.371 15.8203 77.0996 15.8203ZM38.916-39.5508C38.916-37.6465 40.332-36.1328 42.5293-36.1328C43.5547-36.1328 44.5312-36.6699 45.3613-37.4023L75.293-62.5C76.5137-63.5742 77.7344-63.4766 78.9551-62.5L108.838-37.4023C109.717-36.6699 110.645-36.1328 111.67-36.1328C113.721-36.1328 115.234-37.5 115.234-39.502C115.234-40.625 114.795-41.6504 113.867-42.4316L105.225-49.707L105.225-62.6465C105.225-63.9648 104.395-64.8926 103.027-64.8926L98.1445-64.8926C96.8262-64.8926 95.8984-63.9648 95.8984-62.6465L95.8984-57.5195L82.373-68.8965C79.1992-71.582 75.0488-71.582 71.9238-68.8965L40.332-42.4316C39.4043-41.6504 38.916-40.5762 38.916-39.5508ZM49.1699-11.5723C49.1699-7.12891 52.0508-4.39453 56.7383-4.39453L97.5098-4.39453C102.148-4.39453 105.029-7.12891 105.029-11.5723L105.029-34.668L79.0527-56.4941C77.7832-57.5684 76.3672-57.5195 75.1465-56.4941L49.1699-34.7168ZM85.2539-11.1328L68.9453-11.1328L68.9453-29.9316C68.9453-31.3477 69.9219-32.2754 71.3379-32.2754L82.9102-32.2754C84.375-32.2754 85.2539-31.3477 85.2539-29.9316Z"/>
  </g>
  <g id="Semibold-L" transform="matrix(1 0 0 1 1966.97 1556)">
   <path d="M76.2695 29.7363C111.914 29.7363 141.309 0.390625 141.309-35.2539C141.309-70.8984 111.865-100.244 76.2695-100.244C40.625-100.244 11.2793-70.8984 11.2793-35.2539C11.2793 0.390625 40.6738 29.7363 76.2695 29.7363ZM76.2695 17.041C47.3145 17.041 24.0234-6.25 24.0234-35.2539C24.0234-64.209 47.2656-87.5488 76.2695-87.5488C105.225-87.5488 128.564-64.209 128.613-35.2539C128.662-6.25 105.273 17.041 76.2695 17.041ZM37.8418-39.9902C37.8418-38.2812 39.1113-36.8652 41.1621-36.8652C42.0898-36.8652 42.9688-37.3535 43.7012-38.0371L74.5117-63.8184C75.7324-64.8926 76.9043-64.7949 78.125-63.8184L108.838-38.0371C109.668-37.3535 110.498-36.8652 111.426-36.8652C113.281-36.8652 114.697-38.0859 114.697-39.8926C114.697-41.0156 114.307-41.8945 113.477-42.5781L104.639-50L104.639-62.8906C104.639-64.209 103.809-65.0879 102.49-65.0879L98.1934-65.0879C96.9238-65.0879 95.9961-64.209 95.9961-62.8906L95.9961-57.2266L81.2988-69.5801C78.3203-72.1191 74.3652-72.1191 71.2891-69.5801L39.1113-42.5781C38.2812-41.8457 37.8418-40.918 37.8418-39.9902ZM47.998-11.377C47.998-6.93359 50.7812-4.24805 55.4199-4.24805L97.168-4.24805C101.758-4.24805 104.541-6.93359 104.541-11.377L104.541-36.0352L78.2715-58.0566C77.002-59.1797 75.5371-59.1309 74.2676-58.0566L47.998-36.0352ZM84.5215-10.5957L68.0176-10.5957L68.0176-30.2246C68.0176-31.6895 68.9941-32.6172 70.4102-32.6172L82.1777-32.6172C83.6426-32.6172 84.5215-31.6895 84.5215-30.2246Z"/>
  </g>
  <g id="Medium-L" transform="matrix(1 0 0 1 1670.87 1556)">
   <path d="M75.6836 29.1504C110.938 29.1504 140.088 0 140.088-35.2539C140.088-70.5078 110.889-99.6582 75.6348-99.6582C40.3809-99.6582 11.2793-70.5078 11.2793-35.2539C11.2793 0 40.3809 29.1504 75.6836 29.1504ZM75.6836 18.0176C46.1426 18.0176 22.4609-5.76172 22.4609-35.2539C22.4609-64.7461 46.1426-88.5254 75.6348-88.5254C105.127-88.5254 128.906-64.7461 128.906-35.2539C128.955-5.76172 105.176 18.0176 75.6836 18.0176ZM37.0117-40.2832C37.0117-38.7695 38.2324-37.4023 40.0879-37.4023C41.0156-37.4023 41.748-37.8906 42.4805-38.5254L73.877-64.8438C75.0977-65.918 76.2695-65.8203 77.4902-64.8438L108.838-38.5254C109.619-37.8906 110.352-37.4023 111.23-37.4023C112.939-37.4023 114.258-38.5254 114.258-40.1855C114.258-41.2598 113.916-42.041 113.135-42.7246L104.248-50.1953L104.248-63.1348C104.248-64.4043 103.418-65.2832 102.1-65.2832L98.2422-65.2832C96.9727-65.2832 96.0938-64.4043 96.0938-63.1348L96.0938-57.0312L80.5176-70.0684C77.5879-72.5586 73.7793-72.5586 70.8496-70.0684L38.1836-42.6758C37.4023-42.041 37.0117-41.1621 37.0117-40.2832ZM47.168-11.1816C47.168-6.78711 49.8535-4.15039 54.3945-4.15039L96.9727-4.15039C101.465-4.15039 104.15-6.78711 104.15-11.1816L104.15-37.0605L77.6367-59.2773C76.3672-60.4004 74.9512-60.3516 73.6328-59.2773L47.168-37.0605ZM83.9844-10.1562L67.334-10.1562L67.334-30.4688C67.334-31.8848 68.3105-32.8125 69.7266-32.8125L81.6406-32.8125C83.1055-32.8125 83.9844-31.8848 83.9844-30.4688Z"/>
  </g>
  <g id="Regular-L" transform="matrix(1 0 0 1 1374.97 1556)">
   <path d="M74.8535 28.3203C109.668 28.3203 138.477-0.488281 138.477-35.2539C138.477-70.0684 109.619-98.877 74.8047-98.877C40.0391-98.877 11.2793-70.0684 11.2793-35.2539C11.2793-0.488281 40.0879 28.3203 74.8535 28.3203ZM74.8535 19.2383C44.6777 19.2383 20.4102-5.07812 20.4102-35.2539C20.4102-65.4785 44.6289-89.7461 74.8047-89.7461C105.029-89.7461 129.297-65.4785 129.346-35.2539C129.395-5.07812 105.078 19.2383 74.8535 19.2383ZM35.9375-40.7227C35.9375-39.4043 37.0117-38.1348 38.7207-38.1348C39.5508-38.1348 40.2344-38.623 40.8203-39.1602L73.0469-66.1621C74.3164-67.2363 75.4395-67.1387 76.6602-66.1621L108.789-39.1602C109.521-38.623 110.156-38.1348 110.986-38.1348C112.451-38.1348 113.672-39.1113 113.672-40.625C113.672-41.6016 113.379-42.2363 112.695-42.8711L103.662-50.4395L103.662-63.3789C103.662-64.6484 102.832-65.5273 101.562-65.5273L98.291-65.5273C97.0215-65.5273 96.1426-64.6484 96.1426-63.3789L96.1426-56.7383L79.4922-70.752C76.709-73.0957 73.0957-73.0957 70.2637-70.752L36.9629-42.8711C36.2793-42.2363 35.9375-41.5039 35.9375-40.7227ZM46.0449-10.9375C46.0449-6.5918 48.6328-4.05273 53.0762-4.05273L96.6797-4.05273C101.074-4.05273 103.662-6.5918 103.662-10.9375L103.662-38.3789L76.8555-60.8887C75.5371-61.9629 74.1211-61.9141 72.8027-60.8887L46.0449-38.3789ZM83.3008-9.61914L66.4062-9.61914L66.4062-30.7617C66.4062-32.1777 67.3828-33.1543 68.7988-33.1543L80.9082-33.1543C82.373-33.1543 83.3008-32.1777 83.3008-30.7617Z"/>
  </g>
  <g id="Light-L" transform="matrix(1 0 0 1 1079.18 1556)">
   <path d="M73.9258 27.3926C108.301 27.3926 136.621-0.927734 136.621-35.2539C136.621-69.6289 108.252-97.9492 73.9258-97.9492C39.5508-97.9492 11.2793-69.6289 11.2793-35.2539C11.2793-0.927734 39.5996 27.3926 73.9258 27.3926ZM73.9258 20.5078C43.1152 20.5078 18.2129-4.44336 18.2129-35.2539C18.2129-66.1133 43.0664-91.0156 73.9258-91.0156C104.736-91.0156 129.688-66.1133 129.736-35.2539C129.736-4.44336 104.785 20.5078 73.9258 20.5078ZM36.2793-41.1621C36.2793-39.9902 37.207-39.0137 38.623-39.0137C39.3066-39.0137 39.8438-39.3555 40.332-39.7949L71.7285-66.0645C73.3398-67.4805 74.6582-67.3828 76.2207-66.0645L107.471-39.7949C108.105-39.3555 108.594-39.0137 109.229-39.0137C110.449-39.0137 111.523-39.8438 111.523-41.1133C111.523-41.9922 111.23-42.5293 110.645-43.0664L102.148-50.1953L102.148-62.9883C102.148-64.0137 101.465-64.7461 100.391-64.7461L97.5098-64.7461C96.4844-64.7461 95.752-64.0137 95.752-62.9883L95.752-55.5664L78.7598-69.8242C75.8789-72.2656 72.1191-72.2656 69.1406-69.8242L37.207-43.0664C36.5723-42.5293 36.2793-41.8945 36.2793-41.1621ZM45.752-11.1816C45.752-7.17773 48.1445-4.83398 52.1973-4.83398L95.752-4.83398C99.7559-4.83398 102.148-7.17773 102.148-11.1816L102.148-40.2344L75.9766-62.207C74.6094-63.3301 73.2422-63.2812 71.875-62.207L45.752-40.2832ZM82.2266-9.375L65.625-9.375L65.625-30.6641C65.625-31.9824 66.5527-32.8125 67.8223-32.8125L80.0293-32.8125C81.3477-32.8125 82.2266-31.9824 82.2266-30.6641Z"/>
  </g>
  <g id="Thin-L" transform="matrix(1 0 0 1 783.693 1556)">
   <path d="M72.7051 26.1719C106.494 26.1719 134.18-1.51367 134.18-35.2539C134.18-69.043 106.494-96.7285 72.7051-96.7285C38.9648-96.7285 11.2793-69.043 11.2793-35.2539C11.2793-1.51367 38.9648 26.1719 72.7051 26.1719ZM72.7051 22.168C41.0156 22.168 15.2832-3.56445 15.2832-35.2539C15.2832-66.9922 41.0156-92.7246 72.7051-92.7246C104.395-92.7246 130.176-66.9922 130.176-35.2539C130.176-3.56445 104.443 22.168 72.7051 22.168ZM36.7188-41.7969C36.7188-40.8203 37.5-40.1367 38.4766-40.1367C38.9648-40.1367 39.3066-40.332 39.6973-40.6738L69.9707-66.0156C72.0215-67.7734 73.584-67.7734 75.6348-66.0156L105.664-40.6738C106.201-40.332 106.494-40.1367 106.885-40.1367C107.812-40.1367 108.643-40.8203 108.643-41.748C108.643-42.4805 108.398-42.8711 107.861-43.3105L100.098-49.8535L100.098-62.4512C100.098-63.2324 99.5605-63.7695 98.877-63.7695L96.4844-63.7695C95.752-63.7695 95.2148-63.2324 95.2148-62.4512L95.2148-53.9551L77.7832-68.6523C74.7559-71.1914 70.8008-71.1914 67.7246-68.6523L37.5-43.3105C36.9629-42.8711 36.7188-42.4316 36.7188-41.7969ZM45.4102-11.5234C45.4102-7.95898 47.4609-5.85938 51.0742-5.85938L94.5312-5.85938C98.0469-5.85938 100.098-7.95898 100.098-11.5234L100.098-42.6758L74.8047-63.916C73.3887-65.1367 72.0703-65.0879 70.6543-63.916L45.4102-42.7246ZM80.8105-9.13086L64.5996-9.13086L64.5996-30.5664C64.5996-31.7383 65.4297-32.4219 66.5527-32.4219L78.9062-32.4219C79.9805-32.4219 80.8105-31.7383 80.8105-30.5664Z"/>
  </g>
  <g id="Ultralight-L" transform="matrix(1 0 0 1 487.616 1556)">
   <path d="M72.1191 25.5371C105.566 25.5371 132.91-1.80664 132.91-35.2539C132.91-68.75 105.566-96.0938 72.1191-96.0938C38.623-96.0938 11.2793-68.75 11.2793-35.2539C11.2793-1.80664 38.623 25.5371 72.1191 25.5371ZM72.1191 23.0469C39.9414 23.0469 13.7695-3.125 13.7695-35.2539C13.7695-67.4316 39.9414-93.6035 72.1191-93.6035C104.248-93.6035 130.42-67.4316 130.42-35.2539C130.42-3.125 104.248 23.0469 72.1191 23.0469ZM36.9629-42.0898C36.9629-41.2598 37.6465-40.6738 38.4277-40.6738C38.7695-40.6738 39.0625-40.8203 39.3555-41.1133L69.043-65.9668C71.3379-67.9199 72.998-67.9199 75.293-65.9668L104.785-41.1133C105.225-40.8203 105.42-40.6738 105.664-40.6738C106.494-40.6738 107.129-41.3086 107.129-42.0898C107.129-42.7246 106.934-43.0664 106.445-43.457L99.0723-49.6582L99.0723-62.1582C99.0723-62.793 98.6328-63.2324 98.0469-63.2324L95.9473-63.2324C95.3613-63.2324 94.9219-62.793 94.9219-62.1582L94.9219-53.1738L77.2949-68.0176C74.2188-70.6055 70.166-70.6055 66.9922-68.0176L37.6465-43.457C37.207-43.0664 36.9629-42.7246 36.9629-42.0898ZM45.2148-11.7188C45.2148-8.34961 47.1191-6.39648 50.4883-6.39648L93.8965-6.39648C97.1191-6.39648 99.0723-8.34961 99.0723-11.7188L99.0723-43.8965L74.1699-64.7949C72.7051-66.0156 71.4355-66.0156 69.9707-64.7949L45.2148-43.9941ZM80.0781-8.98438L64.1113-8.98438L64.1113-30.5176C64.1113-31.5918 64.8926-32.1777 65.8691-32.1777L78.3203-32.1777C79.2969-32.1777 80.0781-31.5918 80.0781-30.5176Z"/>
  </g>
  <g id="Black-M" transform="matrix(1 0 0 1 2870.97 1126)">
   <path d="M62.4023 18.457C91.9922 18.457 116.113-5.61523 116.113-35.2051C116.113-64.7949 91.9922-88.8672 62.4023-88.8672C32.8125-88.8672 8.74023-64.7949 8.74023-35.2051C8.74023-5.61523 32.8125 18.457 62.4023 18.457ZM62.4023 0.195312C42.8711 0.195312 27.002-15.625 27.002-35.2051C27.002-54.7363 42.8711-70.6055 62.4023-70.6055C81.9824-70.6055 97.8027-54.7363 97.8027-35.2051C97.8027-15.625 81.9824 0.195312 62.4023 0.195312ZM34.5215-37.207C34.5215-35.0098 36.0352-33.5938 38.3789-33.5938C39.3066-33.5938 40.3809-33.9844 41.2598-34.7656L60.8398-51.2207C61.8652-52.0996 63.0371-52.0996 64.1113-51.2207L83.6426-34.7656C84.5215-33.9844 85.5957-33.5938 86.5234-33.5938C88.8672-33.5938 90.3809-35.0098 90.3809-37.207C90.3809-38.2812 89.7949-39.5508 88.8184-40.3809L82.9102-45.2637L82.9102-55.2246C82.9102-56.25 82.3242-56.8848 81.25-56.8848L75.5371-56.8848C74.4629-56.8848 73.7793-56.25 73.7793-55.2246L73.7793-52.9297L67.4316-58.252C64.502-60.7422 60.4492-60.7422 57.5195-58.252L36.084-40.2832C35.1074-39.502 34.5215-38.2812 34.5215-37.207ZM42.3828-17.9688C42.3828-14.5508 44.873-12.2559 48.6816-12.2559L76.2207-12.2559C79.9805-12.2559 82.5195-14.5508 82.5195-17.9688L82.5195-30.6152L63.916-46.1914C62.9883-46.9727 61.9141-46.9727 60.9863-46.1914L42.3828-30.6152ZM68.2617-18.6523L56.5918-18.6523L56.5918-29.834C56.5918-30.957 57.3242-31.5918 58.3008-31.5918L66.6016-31.5918C67.627-31.5918 68.2617-30.957 68.2617-29.834Z"/>
  </g>
  <g id="Heavy-M" transform="matrix(1 0 0 1 2575.19 1126)">
   <path d="M61.5234 17.5293C90.5273 17.5293 114.258-6.20117 114.258-35.2051C114.258-64.2578 90.5273-87.9883 61.4746-87.9883C32.4707-87.9883 8.74023-64.2578 8.74023-35.2051C8.74023-6.20117 32.4707 17.5293 61.5234 17.5293ZM61.5234 1.61133C41.1133 1.61133 24.6582-14.8438 24.6582-35.2051C24.6582-55.6152 41.1133-72.0703 61.4746-72.0703C81.8848-72.0703 98.3398-55.6152 98.3398-35.2051C98.3398-14.8438 81.8848 1.61133 61.5234 1.61133ZM32.9102-37.6953C32.9102-35.7422 34.2773-34.375 36.377-34.375C37.3047-34.375 38.2324-34.8145 39.0625-35.498L60.0098-53.0762C60.9863-53.9551 62.0605-53.9062 63.0859-53.0762L83.9844-35.498C84.8145-34.8145 85.791-34.375 86.6699-34.375C88.7207-34.375 90.1367-35.6934 90.1367-37.6465C90.1367-38.6719 89.6484-39.7949 88.7207-40.5273L82.5195-45.7031L82.5195-55.7129C82.5195-56.7383 81.8848-57.4219 80.8105-57.4219L75.7812-57.4219C74.707-57.4219 74.0234-56.7383 74.0234-55.7129L74.0234-52.8809L66.1621-59.4238C63.4277-61.7676 59.7168-61.7676 56.9336-59.4238L34.3262-40.4785C33.3984-39.7461 32.9102-38.6719 32.9102-37.6953ZM40.8203-17.5781C40.8203-14.1113 43.2129-11.8652 47.0215-11.8652L76.0742-11.8652C79.7852-11.8652 82.2266-14.1113 82.2266-17.5781L82.2266-32.0312L62.9883-48.0957C62.0605-48.9258 60.9863-48.9258 60.0586-48.0957L40.8203-32.0312ZM67.5293-17.8711L55.4688-17.8711L55.4688-30.3223C55.4688-31.4453 56.25-32.1289 57.2754-32.1289L65.7715-32.1289C66.8945-32.1289 67.5293-31.4453 67.5293-30.3223Z"/>
  </g>
  <g id="Bold-M" transform="matrix(1 0 0 1 2279.5 1126)">
   <path d="M60.498 16.5039C88.8672 16.5039 112.207-6.83594 112.207-35.2051C112.207-63.623 88.8672-86.9629 60.4492-86.9629C32.0312-86.9629 8.74023-63.623 8.74023-35.2051C8.74023-6.83594 32.0801 16.5039 60.498 16.5039ZM60.498 3.22266C39.1602 3.22266 22.0703-13.916 22.0703-35.2051C22.0703-56.543 39.1602-73.6816 60.4492-73.6816C81.7383-73.6816 98.9258-56.543 98.9258-35.2051C98.9746-13.916 81.7871 3.22266 60.498 3.22266ZM31.1035-38.2324C31.1035-36.5723 32.3242-35.3027 34.2285-35.3027C35.0586-35.3027 35.8887-35.6934 36.5723-36.3281L59.1309-55.2246C60.0098-56.0059 60.9863-55.957 61.9141-55.2246L84.375-36.3281C85.1074-35.6934 85.9375-35.3027 86.7676-35.3027C88.5742-35.3027 89.8438-36.4258 89.8438-38.1836C89.8438-39.1113 89.4531-40.0391 88.6719-40.6738L82.0801-46.2402L82.0801-56.25C82.0801-57.3242 81.3965-58.0078 80.3223-58.0078L76.0742-58.0078C75-58.0078 74.2676-57.3242 74.2676-56.25L74.2676-52.7832L64.7461-60.7422C62.207-62.8906 58.8379-62.8906 56.2988-60.7422L32.3242-40.6738C31.543-39.9902 31.1035-39.0625 31.1035-38.2324ZM39.1113-17.1387C39.1113-13.623 41.4062-11.4258 45.166-11.4258L75.8301-11.4258C79.541-11.4258 81.8848-13.623 81.8848-17.1387L81.8848-33.5938L62.0117-50.293C61.0352-51.0742 59.9609-51.0742 58.9844-50.293L39.1113-33.5938ZM66.6992-17.041L54.248-17.041L54.248-30.8594C54.248-31.9824 55.0293-32.666 56.1035-32.666L64.8926-32.666C66.0645-32.666 66.6992-31.9824 66.6992-30.8594Z"/>
  </g>
  <g id="Semibold-M" transform="matrix(1 0 0 1 1983.5 1126)">
   <path d="M59.7656 15.8203C87.7441 15.8203 110.791-7.27539 110.791-35.2539C110.791-63.2324 87.6953-86.2793 59.7656-86.2793C31.7871-86.2793 8.74023-63.2324 8.74023-35.2539C8.74023-7.27539 31.7871 15.8203 59.7656 15.8203ZM59.7656 4.3457C37.8418 4.3457 20.2637-13.3301 20.2637-35.2539C20.2637-57.1777 37.793-74.8047 59.7656-74.8047C81.6895-74.8047 99.3164-57.1777 99.3652-35.2539C99.3652-13.3301 81.6895 4.3457 59.7656 4.3457ZM29.8828-38.5742C29.8828-37.1094 30.957-35.9375 32.7148-35.9375C33.4961-35.9375 34.2285-36.3281 34.9121-36.9141L58.4961-56.6895C59.3262-57.4219 60.2539-57.373 61.084-56.6895L84.6191-36.9141C85.3516-36.3281 86.084-35.9375 86.8652-35.9375C88.4766-35.9375 89.6973-36.9629 89.6973-38.5254C89.6973-39.4043 89.3555-40.1855 88.623-40.8203L81.7871-46.582L81.7871-56.6406C81.7871-57.7148 81.1035-58.3984 79.9805-58.3984L76.2695-58.3984C75.1953-58.3984 74.4629-57.7148 74.4629-56.6406L74.4629-52.6855L63.7695-61.6699C61.377-63.7207 58.252-63.7207 55.8594-61.6699L30.957-40.7715C30.2246-40.1855 29.8828-39.3555 29.8828-38.5742ZM37.8906-16.7969C37.8906-13.2812 40.1855-11.1328 43.8477-11.1328L75.6836-11.1328C79.3457-11.1328 81.6406-13.2812 81.6406-16.7969L81.6406-34.7168L61.2793-51.7578C60.3516-52.5879 59.2285-52.5391 58.252-51.7578L37.8906-34.7168ZM66.1621-16.5039L53.418-16.5039L53.418-31.2012C53.418-32.373 54.1504-33.1055 55.3223-33.1055L64.2578-33.1055C65.4785-33.1055 66.1621-32.373 66.1621-31.2012Z"/>
  </g>
  <g id="Medium-M" transform="matrix(1 0 0 1 1687.3 1126)">
   <path d="M59.2285 15.2344C86.9141 15.2344 109.766-7.61719 109.766-35.2539C109.766-62.8906 86.8652-85.7422 59.1797-85.7422C31.543-85.7422 8.74023-62.8906 8.74023-35.2539C8.74023-7.61719 31.5918 15.2344 59.2285 15.2344ZM59.2285 5.17578C36.8164 5.17578 18.8965-12.8418 18.8965-35.2539C18.8965-57.666 36.8164-75.6348 59.1797-75.6348C81.5918-75.6348 99.6094-57.666 99.6582-35.2539C99.707-12.8418 81.6406 5.17578 59.2285 5.17578ZM28.9062-38.8672C28.9062-37.5488 29.9316-36.377 31.543-36.377C32.3242-36.377 33.0078-36.8164 33.5938-37.3535L58.0078-57.7637C58.8379-58.4961 59.668-58.4473 60.498-57.7637L84.8633-37.3535C85.498-36.8164 86.1816-36.377 86.9629-36.377C88.4277-36.377 89.5508-37.3535 89.5508-38.7695C89.5508-39.6484 89.2578-40.332 88.5742-40.918L81.543-46.8262L81.543-56.8848C81.543-58.0078 80.8105-58.7402 79.7363-58.7402L76.416-58.7402C75.3418-58.7402 74.5605-58.0078 74.5605-56.8848L74.5605-52.6367L63.0371-62.3535C60.7422-64.3066 57.8125-64.3066 55.5176-62.3535L29.8828-40.8691C29.248-40.332 28.9062-39.5508 28.9062-38.8672ZM37.0117-16.5527C37.0117-13.0371 39.209-10.8887 42.9199-10.8887L75.5859-10.8887C79.248-10.8887 81.4453-13.0371 81.4453-16.5527L81.4453-35.5469L60.7422-52.8809C59.8145-53.7109 58.6914-53.6621 57.7148-52.8809L37.0117-35.5469ZM65.7227-16.0645L52.7832-16.0645L52.7832-31.4941C52.7832-32.6172 53.5156-33.3984 54.6875-33.3984L63.8184-33.3984C65.0391-33.3984 65.7227-32.6172 65.7227-31.4941Z"/>
  </g>
  <g id="Regular-M" transform="matrix(1 0 0 1 1391.3 1126)">
   <path d="M58.5449 14.5508C85.791 14.5508 108.35-8.05664 108.35-35.2539C108.35-62.5 85.7422-85.0586 58.4961-85.0586C31.2988-85.0586 8.74023-62.5 8.74023-35.2539C8.74023-8.05664 31.3477 14.5508 58.5449 14.5508ZM58.5449 6.25C35.498 6.25 17.0898-12.207 17.0898-35.2539C17.0898-58.3008 35.4492-76.7578 58.4961-76.7578C81.543-76.7578 100-58.3008 100.049-35.2539C100.098-12.207 81.5918 6.25 58.5449 6.25ZM27.6855-39.209C27.6855-38.0859 28.5645-37.0117 30.0293-37.0117C30.8105-37.0117 31.3965-37.4023 31.9336-37.9395L57.373-59.2285C58.2031-59.9121 58.9355-59.8145 59.7168-59.2285L85.1074-37.9395C85.7422-37.4023 86.2793-37.0117 87.0117-37.0117C88.2812-37.0117 89.3555-37.8418 89.3555-39.1113C89.3555-39.9414 89.1113-40.5273 88.5254-41.0156L81.2012-47.168L81.2012-57.2754C81.2012-58.3496 80.5176-59.1309 79.3945-59.1309L76.6113-59.1309C75.5371-59.1309 74.7559-58.3496 74.7559-57.2754L74.7559-52.5879L62.0605-63.2812C59.9121-65.0879 57.1777-65.0879 55.0781-63.2812L28.5156-41.0156C27.9785-40.5273 27.6855-39.8438 27.6855-39.209ZM35.8398-16.2598C35.8398-12.6953 37.9883-10.5957 41.6504-10.5957L75.4395-10.5957C79.1016-10.5957 81.2012-12.6953 81.2012-16.2598L81.2012-36.6211L60.0586-54.3457C59.082-55.1758 57.959-55.127 56.9824-54.3457L35.8398-36.6211ZM65.1855-15.4785L51.9043-15.4785L51.9043-31.8359C51.9043-33.0078 52.6855-33.7891 53.9062-33.7891L63.1836-33.7891C64.4531-33.7891 65.1855-33.0078 65.1855-31.8359Z"/>
  </g>
  <g id="Light-M" transform="matrix(1 0 0 1 1095.42 1126)">
   <path d="M57.7148 13.7207C84.5215 13.7207 106.689-8.44727 106.689-35.2539C106.689-62.1094 84.5215-84.2285 57.666-84.2285C30.8594-84.2285 8.74023-62.1094 8.74023-35.2539C8.74023-8.44727 30.9082 13.7207 57.7148 13.7207ZM57.7148 7.37305C34.082 7.37305 15.0879-11.6699 15.0879-35.2539C15.0879-58.8867 34.082-77.9297 57.666-77.9297C81.2988-77.9297 100.342-58.8867 100.391-35.2539C100.391-11.6699 81.3477 7.37305 57.7148 7.37305ZM27.9785-39.6484C27.9785-38.6719 28.7598-37.7441 29.9805-37.7441C30.5664-37.7441 31.0547-38.0859 31.4941-38.4766L56.2012-59.1797C57.2754-60.1074 58.2031-60.0586 59.2773-59.1797L83.8867-38.4766C84.4238-38.0859 84.8633-37.7441 85.4492-37.7441C86.5234-37.7441 87.4023-38.4766 87.4023-39.5508C87.4023-40.2832 87.1582-40.7715 86.6699-41.2109L79.834-46.9238L79.834-56.9336C79.834-57.8125 79.248-58.4473 78.3203-58.4473L75.9277-58.4473C75.0488-58.4473 74.4141-57.8125 74.4141-56.9336L74.4141-51.5137L61.377-62.4512C59.1797-64.3066 56.2988-64.3066 54.1016-62.4512L28.7598-41.2109C28.2227-40.7715 27.9785-40.2344 27.9785-39.6484ZM35.5957-16.5039C35.5957-13.2324 37.5488-11.3281 40.8691-11.3281L74.6094-11.3281C77.8809-11.3281 79.834-13.2324 79.834-16.5039L79.834-38.2812L59.2773-55.5176C58.252-56.3965 57.1777-56.3477 56.1523-55.5176L35.5957-38.2812ZM64.209-15.2832L51.2207-15.2832L51.2207-31.7383C51.2207-32.8125 51.9531-33.4961 53.0273-33.4961L62.4023-33.4961C63.5254-33.4961 64.209-32.8125 64.209-31.7383Z"/>
  </g>
  <g id="Thin-M" transform="matrix(1 0 0 1 799.806 1126)">
   <path d="M56.6406 12.5977C82.9102 12.5977 104.492-8.98438 104.492-35.2539C104.492-61.5723 82.9102-83.1543 56.5918-83.1543C30.3223-83.1543 8.74023-61.5723 8.74023-35.2539C8.74023-8.98438 30.3223 12.5977 56.6406 12.5977ZM56.6406 8.88672C32.2266 8.88672 12.4512-10.8887 12.4512-35.2539C12.4512-59.6191 32.2266-79.4434 56.5918-79.4434C81.0059-79.4434 100.781-59.6191 100.781-35.2539C100.781-10.8887 81.0059 8.88672 56.6406 8.88672ZM28.3691-40.1855C28.3691-39.4043 29.0039-38.7695 29.8828-38.7695C30.2734-38.7695 30.5664-38.9648 30.9082-39.2578L54.5898-59.082C56.1035-60.4004 57.2266-60.3516 58.7402-59.082L82.2754-39.2578C82.7148-38.9648 83.0078-38.7695 83.3496-38.7695C84.1309-38.7695 84.8145-39.3555 84.8145-40.1367C84.8145-40.7227 84.6191-41.1133 84.1797-41.4551L78.0273-46.6309L78.0273-56.4453C78.0273-57.0801 77.5879-57.5684 76.9531-57.5684L75-57.5684C74.3652-57.5684 73.9258-57.0801 73.9258-56.4453L73.9258-50.0977L60.498-61.377C58.2031-63.3301 55.1758-63.3301 52.7832-61.377L29.0039-41.4551C28.5645-41.1133 28.3691-40.7227 28.3691-40.1855ZM35.2539-16.7969C35.2539-13.916 36.9629-12.2559 39.8438-12.2559L73.5352-12.2559C76.3672-12.2559 78.0273-13.916 78.0273-16.7969L78.0273-40.4785L58.2031-57.0801C57.1289-58.0078 56.1035-58.0078 55.0293-57.0801L35.2539-40.5273ZM62.9395-15.0391L50.293-15.0391L50.293-31.6406C50.293-32.5684 50.9766-33.1543 51.8555-33.1543L61.377-33.1543C62.3047-33.1543 62.9395-32.5684 62.9395-31.6406Z"/>
  </g>
  <g id="Ultralight-M" transform="matrix(1 0 0 1 503.656 1126)">
   <path d="M56.0547 12.0605C82.0801 12.0605 103.369-9.22852 103.369-35.2539C103.369-61.2793 82.0801-82.5684 56.0547-82.5684C30.0293-82.5684 8.74023-61.2793 8.74023-35.2539C8.74023-9.22852 30.0293 12.0605 56.0547 12.0605ZM56.0547 9.66797C31.2988 9.66797 11.1328-10.498 11.1328-35.2539C11.1328-60.0586 31.2988-80.1758 56.0547-80.1758C80.8594-80.1758 100.977-60.0586 100.977-35.2539C100.977-10.498 80.8594 9.66797 56.0547 9.66797ZM28.5645-40.4785C28.5645-39.7949 29.1504-39.3066 29.7852-39.3066C30.127-39.3066 30.3711-39.4043 30.6152-39.6484L53.8086-59.082C55.5176-60.498 56.7383-60.498 58.4473-59.082L81.4941-39.6484C81.8359-39.4043 82.0312-39.3066 82.2754-39.3066C82.959-39.3066 83.4961-39.7949 83.4961-40.4785C83.4961-40.9668 83.3008-41.2598 82.9102-41.5527L77.0996-46.4844L77.0996-56.2012C77.0996-56.7383 76.709-57.0801 76.2207-57.0801L74.5117-57.0801C74.0234-57.0801 73.6816-56.7383 73.6816-56.2012L73.6816-49.3652L60.0586-60.8398C57.666-62.8418 54.541-62.8418 52.1484-60.8398L29.1504-41.5527C28.7598-41.2598 28.5645-40.9668 28.5645-40.4785ZM35.1074-16.9434C35.1074-14.3066 36.6211-12.7441 39.3066-12.7441L72.9492-12.7441C75.5371-12.7441 77.0996-14.3066 77.0996-16.9434L77.0996-41.6016L57.666-57.9102C56.543-58.8379 55.5664-58.8379 54.4434-57.9102L35.1074-41.6504ZM62.3047-14.9414L49.8535-14.9414L49.8535-31.5918C49.8535-32.4219 50.4395-32.959 51.2695-32.959L60.8887-32.959C61.6699-32.959 62.3047-32.4219 62.3047-31.5918Z"/>
  </g>
  <g id="Black-S" transform="matrix(1 0 0 1 2884.57 696)">
   <path d="M48.8281 6.78711C71.9727 6.78711 90.8203-12.0605 90.8203-35.2051C90.8203-58.3496 71.9727-77.1973 48.8281-77.1973C25.6836-77.1973 6.83594-58.3496 6.83594-35.2051C6.83594-12.0605 25.6836 6.78711 48.8281 6.78711ZM48.8281-7.37305C33.4473-7.37305 20.9961-19.8242 20.9961-35.2051C20.9961-50.5859 33.4473-63.0371 48.8281-63.0371C64.209-63.0371 76.6602-50.5859 76.6602-35.2051C76.6602-19.8242 64.209-7.37305 48.8281-7.37305ZM26.9043-36.8164C26.9043-35.1074 28.0762-33.9844 29.8828-33.9844C30.6152-33.9844 31.4453-34.3262 32.1289-34.9121L47.6074-47.9004C48.3887-48.584 49.3164-48.584 50.1465-47.9004L65.5762-34.9121C66.2598-34.3262 67.0898-33.9844 67.8223-33.9844C69.6289-33.9844 70.8008-35.1074 70.8008-36.8164C70.8008-37.6465 70.3613-38.623 69.5801-39.2578L64.9414-43.1641L64.9414-50.9277C64.9414-51.7578 64.4531-52.2461 63.623-52.2461L59.1797-52.2461C58.3496-52.2461 57.8125-51.7578 57.8125-50.9277L57.8125-49.1211L52.7344-53.3691C50.4395-55.3223 47.3145-55.3223 45.0195-53.3691L28.125-39.209C27.3438-38.5742 26.9043-37.6465 26.9043-36.8164ZM33.0566-21.6797C33.0566-18.9941 35.0098-17.1875 37.9883-17.1875L59.7168-17.1875C62.6465-17.1875 64.6484-18.9941 64.6484-21.6797L64.6484-31.6895L50-43.9453C49.2676-44.5801 48.4375-44.5801 47.7051-43.9453L33.0566-31.6895ZM53.418-22.168L44.2383-22.168L44.2383-31.0547C44.2383-31.9336 44.8242-32.4219 45.6055-32.4219L52.0996-32.4219C52.9297-32.4219 53.418-31.9336 53.418-31.0547Z"/>
  </g>
  <g id="Heavy-S" transform="matrix(1 0 0 1 2588.47 696)">
   <path d="M48.2422 6.15234C70.9961 6.15234 89.5996-12.4512 89.5996-35.2051C89.5996-57.959 70.9961-76.6113 48.1934-76.6113C25.4395-76.6113 6.83594-57.959 6.83594-35.2051C6.83594-12.4512 25.4395 6.15234 48.2422 6.15234ZM48.2422-6.39648C32.2754-6.39648 19.4336-19.2871 19.4336-35.2051C19.4336-51.1719 32.2754-64.0137 48.1934-64.0137C64.1602-64.0137 77.002-51.1719 77.0508-35.2051C77.0508-19.2871 64.1602-6.39648 48.2422-6.39648ZM25.6348-37.1094C25.6348-35.5957 26.709-34.5215 28.3691-34.5215C29.1016-34.5215 29.8828-34.8633 30.5176-35.4004L47.1191-49.3652C47.8027-49.9512 48.6328-49.9512 49.4141-49.3652L65.9668-35.4004C66.6016-34.8633 67.3828-34.5215 68.0664-34.5215C69.7266-34.5215 70.8496-35.5469 70.8496-37.1094C70.8496-37.8906 70.459-38.7695 69.7266-39.3555L64.7949-43.5059L64.7949-51.3184C64.7949-52.1973 64.2578-52.7344 63.3789-52.7344L59.4727-52.7344C58.5938-52.7344 58.0078-52.1973 58.0078-51.3184L58.0078-49.1699L51.8555-54.3457C49.707-56.2012 46.8262-56.2012 44.6777-54.3457L26.7578-39.3066C26.0254-38.7207 25.6348-37.8906 25.6348-37.1094ZM31.8848-21.3379C31.8848-18.6035 33.8379-16.7969 36.8164-16.7969L59.668-16.7969C62.5977-16.7969 64.5508-18.6035 64.5508-21.3379L64.5508-32.5684L49.4141-45.3125C48.6816-45.9473 47.8027-45.8984 47.0703-45.3125L31.8848-32.5684ZM52.9785-21.6309L43.457-21.6309L43.457-31.3965C43.457-32.3242 44.0918-32.8613 44.9219-32.8613L51.5625-32.8613C52.4414-32.8613 52.9785-32.3242 52.9785-31.3965Z"/>
  </g>
  <g id="Bold-S" transform="matrix(1 0 0 1 2292.44 696)">
   <path d="M47.5586 5.46875C69.873 5.46875 88.2324-12.8906 88.2324-35.2539C88.2324-57.5684 69.873-75.9277 47.5098-75.9277C25.1953-75.9277 6.83594-57.5684 6.83594-35.2539C6.83594-12.8906 25.1953 5.46875 47.5586 5.46875ZM47.5586-5.32227C30.957-5.32227 17.6758-18.6523 17.6758-35.2539C17.6758-51.8066 30.957-65.1367 47.5098-65.1367C64.1113-65.1367 77.4414-51.8066 77.4414-35.2539C77.4414-18.6523 64.1113-5.32227 47.5586-5.32227ZM24.2188-37.5C24.2188-36.1328 25.1953-35.1074 26.709-35.1074C27.4414-35.1074 28.0762-35.498 28.6621-35.9863L46.582-50.9766C47.2168-51.5137 47.9004-51.4648 48.5352-50.9766L66.4062-35.9863C66.9922-35.498 67.6758-35.1074 68.3594-35.1074C69.8242-35.1074 70.8496-36.0352 70.8496-37.4512C70.8496-38.2324 70.5566-38.916 69.9219-39.4531L64.5996-43.8965L64.5996-51.8066C64.5996-52.6855 64.0625-53.2715 63.1348-53.2715L59.7656-53.2715C58.8867-53.2715 58.252-52.6855 58.252-51.8066L58.252-49.2188L50.8301-55.4688C48.877-57.1289 46.2891-57.1289 44.2871-55.4688L25.1953-39.4531C24.5605-38.916 24.2188-38.1836 24.2188-37.5ZM30.6152-20.9473C30.6152-18.1641 32.4707-16.4062 35.498-16.4062L59.6191-16.4062C62.5977-16.4062 64.4531-18.1641 64.4531-20.9473L64.4531-33.5938L48.7305-46.7773C47.998-47.4121 47.1191-47.4121 46.3867-46.7773L30.6152-33.5938ZM52.4414-20.9961L42.627-20.9961L42.627-31.8359C42.627-32.7637 43.2129-33.3496 44.1406-33.3496L50.9766-33.3496C51.9531-33.3496 52.4414-32.7637 52.4414-31.8359Z"/>
  </g>
  <g id="Semibold-S" transform="matrix(1 0 0 1 1996.2 696)">
   <path d="M47.0703 4.98047C69.0918 4.98047 87.3047-13.1836 87.3047-35.2539C87.3047-57.2754 69.0918-75.4883 47.0215-75.4883C25-75.4883 6.83594-57.2754 6.83594-35.2539C6.83594-13.1836 25.0488 4.98047 47.0703 4.98047ZM47.0703-4.58984C30.0781-4.58984 16.4551-18.2129 16.4551-35.2539C16.4551-52.2461 30.0293-65.8691 47.0215-65.8691C64.0625-65.8691 77.6855-52.2461 77.7344-35.2539C77.7344-18.2129 64.0625-4.58984 47.0703-4.58984ZM23.2422-37.7441C23.2422-36.5234 24.1211-35.5469 25.5859-35.5469C26.2695-35.5469 26.8555-35.8887 27.4414-36.377L46.1914-52.0996C46.7773-52.5879 47.4121-52.5391 47.9492-52.0996L66.6992-36.377C67.2852-35.8887 67.9199-35.5469 68.6035-35.5469C69.9219-35.5469 70.8984-36.377 70.8984-37.6465C70.8984-38.4277 70.6055-39.0625 70.0684-39.5508L64.502-44.1895L64.502-52.0996C64.502-53.0273 63.916-53.6621 62.9883-53.6621L59.9609-53.6621C59.082-53.6621 58.4473-53.0273 58.4473-52.0996L58.4473-49.2676L50.1465-56.25C48.291-57.8125 45.8984-57.8125 44.043-56.25L24.1211-39.5508C23.5352-39.0137 23.2422-38.3301 23.2422-37.7441ZM29.7363-20.7031C29.7363-17.8711 31.543-16.1133 34.5703-16.1133L59.5703-16.1133C62.5488-16.1133 64.4043-17.8711 64.4043-20.7031L64.4043-34.2773L48.2422-47.8516C47.5098-48.4863 46.6309-48.4375 45.8984-47.8516L29.7363-34.2773ZM52.0996-20.6055L42.041-20.6055L42.041-32.1289C42.041-33.0566 42.627-33.6426 43.6035-33.6426L50.5859-33.6426C51.5625-33.6426 52.0996-33.0566 52.0996-32.1289Z"/>
  </g>
  <g id="Medium-S" transform="matrix(1 0 0 1 1699.83 696)">
   <path d="M46.7285 4.63867C68.5547 4.63867 86.6211-13.4277 86.6211-35.2539C86.6211-57.0801 68.5059-75.1465 46.6797-75.1465C24.8535-75.1465 6.83594-57.0801 6.83594-35.2539C6.83594-13.4277 24.9023 4.63867 46.7285 4.63867ZM46.7285-4.00391C29.3945-4.00391 15.5273-17.9199 15.5273-35.2539C15.5273-52.5879 29.3457-66.4551 46.6797-66.4551C64.0137-66.4551 77.8809-52.5879 77.9297-35.2539C77.9785-17.9199 64.0625-4.00391 46.7285-4.00391ZM22.5098-37.8906C22.5098-36.8164 23.3398-35.8398 24.707-35.8398C25.3906-35.8398 25.9766-36.2305 26.4648-36.6699L45.8984-52.9297C46.4355-53.418 47.0215-53.3203 47.5098-52.9297L66.9434-36.6699C67.4805-36.2305 68.0664-35.8398 68.75-35.8398C69.9707-35.8398 70.8984-36.6211 70.8984-37.8418C70.8984-38.5742 70.6543-39.1113 70.166-39.5996L64.4043-44.4336L64.4043-52.3438C64.4043-53.2715 63.8184-53.9062 62.8418-53.9062L60.1562-53.9062C59.2285-53.9062 58.5449-53.2715 58.5449-52.3438L58.5449-49.3164L49.6094-56.8359C47.8516-58.3008 45.6055-58.3008 43.8477-56.8359L23.291-39.5996C22.7539-39.1113 22.5098-38.4766 22.5098-37.8906ZM29.0527-20.5078C29.0527-17.627 30.8594-15.8691 33.8867-15.8691L59.5215-15.8691C62.5488-15.8691 64.3555-17.627 64.3555-20.5078L64.3555-34.8145L47.9004-48.6328C47.168-49.2676 46.2402-49.2188 45.5078-48.6328L29.0527-34.8145ZM51.8555-20.2637L41.6016-20.2637L41.6016-32.3242C41.6016-33.252 42.1875-33.8867 43.1641-33.8867L50.293-33.8867C51.2695-33.8867 51.8555-33.252 51.8555-32.3242Z"/>
  </g>
  <g id="Regular-S" transform="matrix(1 0 0 1 1403.58 696)">
   <path d="M46.2402 4.15039C67.7734 4.15039 85.6934-13.7207 85.6934-35.2539C85.6934-56.7871 67.7246-74.6582 46.1914-74.6582C24.707-74.6582 6.83594-56.7871 6.83594-35.2539C6.83594-13.7207 24.7559 4.15039 46.2402 4.15039ZM46.2402-3.27148C28.5156-3.27148 14.3555-17.4805 14.3555-35.2539C14.3555-53.0273 28.4668-67.2363 46.1914-67.2363C63.9648-67.2363 78.1738-53.0273 78.2227-35.2539C78.2715-17.4805 64.0137-3.27148 46.2402-3.27148ZM21.5332-38.1348C21.5332-37.207 22.3145-36.2305 23.584-36.2305C24.2188-36.2305 24.7559-36.6211 25.2441-37.0605L45.5078-54.0527C45.9961-54.4922 46.5332-54.3945 46.9727-54.0527L67.2363-37.0605C67.7734-36.6211 68.2617-36.2305 68.9453-36.2305C70.0195-36.2305 70.9473-36.9629 70.9473-38.0371C70.9473-38.7695 70.752-39.2578 70.2637-39.6973L64.3066-44.6777L64.3066-52.6855C64.3066-53.6133 63.6719-54.2969 62.6953-54.2969L60.3516-54.2969C59.375-54.2969 58.7402-53.6133 58.7402-52.6855L58.7402-49.3652L48.9258-57.5684C47.3145-58.9844 45.2148-58.9844 43.6035-57.5684L22.2656-39.6973C21.7773-39.2578 21.5332-38.6719 21.5332-38.1348ZM28.1738-20.2637C28.1738-17.334 29.9805-15.5762 33.0078-15.5762L59.4727-15.5762C62.5-15.5762 64.3066-17.334 64.3066-20.2637L64.3066-35.498L47.4121-49.6582C46.6797-50.293 45.752-50.2441 45.0195-49.6582L28.1738-35.498ZM51.5137-19.8242L41.0156-19.8242L41.0156-32.6172C41.0156-33.5449 41.6504-34.2285 42.627-34.2285L49.9023-34.2285C50.9277-34.2285 51.5137-33.5449 51.5137-32.6172Z"/>
  </g>
  <g id="Light-S" transform="matrix(1 0 0 1 1107.6 696)">
   <path d="M45.5078 3.41797C66.6992 3.41797 84.2285-14.0625 84.2285-35.2539C84.2285-56.4453 66.6504-73.9258 45.5078-73.9258C24.3164-73.9258 6.83594-56.4453 6.83594-35.2539C6.83594-14.0625 24.3652 3.41797 45.5078 3.41797ZM45.5078-2.29492C27.2461-2.29492 12.5977-16.9922 12.5977-35.2539C12.5977-53.5156 27.1973-68.2129 45.5078-68.2129C63.7695-68.2129 78.4668-53.5156 78.5156-35.2539C78.5156-16.9922 63.8184-2.29492 45.5078-2.29492ZM21.7773-38.5254C21.7773-37.6953 22.4609-36.9141 23.4863-36.9141C24.0234-36.9141 24.4629-37.207 24.8047-37.5488L44.4824-54.0039C45.2148-54.6387 45.8496-54.5898 46.582-54.0039L66.1621-37.5488C66.6016-37.207 67.041-36.9141 67.5293-36.9141C68.457-36.9141 69.1895-37.5488 69.1895-38.4766C69.1895-39.0625 69.043-39.4531 68.6035-39.8438L63.0859-44.4824L63.0859-52.3438C63.0859-53.125 62.5488-53.7109 61.7676-53.7109L59.7168-53.7109C58.9355-53.7109 58.3984-53.125 58.3984-52.3438L58.3984-48.3887L48.3398-56.8848C46.6309-58.3008 44.4336-58.3008 42.7246-56.8848L22.4121-39.8438C22.0215-39.4531 21.7773-39.0137 21.7773-38.5254ZM27.9785-20.459C27.9785-17.7734 29.541-16.2109 32.2754-16.2109L58.7402-16.2109C61.4746-16.2109 63.0859-17.7734 63.0859-20.459L63.0859-36.9629L46.7285-50.6836C45.9473-51.3672 45.0684-51.3184 44.2871-50.6836L27.9785-37.0117ZM50.6836-19.6777L40.3809-19.6777L40.3809-32.5195C40.3809-33.3984 40.9668-33.9844 41.8457-33.9844L49.1699-33.9844C50.0977-33.9844 50.6836-33.3984 50.6836-32.5195Z"/>
  </g>
  <g id="Thin-S" transform="matrix(1 0 0 1 811.867 696)">
   <path d="M44.5801 2.49023C65.2832 2.49023 82.2754-14.5508 82.2754-35.2539C82.2754-55.957 65.2344-72.998 44.5312-72.998C23.8281-72.998 6.83594-55.957 6.83594-35.2539C6.83594-14.5508 23.877 2.49023 44.5801 2.49023ZM44.5801-0.927734C25.5859-0.927734 10.2539-16.3086 10.2539-35.2539C10.2539-54.1992 25.5859-69.5801 44.5312-69.5801C63.5254-69.5801 78.8574-54.1992 78.8574-35.2539C78.8574-16.3086 63.5254-0.927734 44.5801-0.927734ZM22.1191-39.0137C22.1191-38.3301 22.6562-37.793 23.3887-37.793C23.7793-37.793 24.0234-37.9883 24.3164-38.2324L43.0664-53.9551C44.1895-54.8828 45.0195-54.834 46.0938-53.9551L64.7461-38.2324C65.1367-37.9883 65.3809-37.793 65.6738-37.793C66.3574-37.793 66.9434-38.2812 66.9434-38.9648C66.9434-39.4531 66.748-39.7461 66.4062-40.0391L61.4746-44.2383L61.4746-51.9531C61.4746-52.4902 61.084-52.8809 60.5469-52.8809L58.9355-52.8809C58.3984-52.8809 58.0078-52.4902 58.0078-51.9531L58.0078-47.168L47.5586-55.9082C45.752-57.4219 43.4082-57.4219 41.6016-55.9082L22.6562-40.0391C22.3145-39.7461 22.1191-39.4043 22.1191-39.0137ZM27.6855-20.7031C27.6855-18.4082 29.0527-17.041 31.3965-17.041L57.8125-17.041C60.1074-17.041 61.4746-18.4082 61.4746-20.7031L61.4746-38.916L45.8008-52.0508C44.9707-52.7832 44.1406-52.7344 43.3105-52.0508L27.6855-38.9648ZM49.5605-19.4824L39.5996-19.4824L39.5996-32.4219C39.5996-33.2031 40.0879-33.6426 40.8203-33.6426L48.291-33.6426C49.0234-33.6426 49.5605-33.2031 49.5605-32.4219Z"/>
  </g>
  <g id="Ultralight-S" transform="matrix(1 0 0 1 515.644 696)">
   <path d="M44.043 1.95312C64.502 1.95312 81.2988-14.7949 81.2988-35.2539C81.2988-55.7129 64.502-72.4609 44.043-72.4609C23.584-72.4609 6.83594-55.7129 6.83594-35.2539C6.83594-14.7949 23.584 1.95312 44.043 1.95312ZM44.043-0.244141C24.7559-0.244141 9.08203-15.9668 9.08203-35.2539C9.08203-54.541 24.7559-70.2637 44.043-70.2637C63.3789-70.2637 79.0527-54.541 79.0527-35.2539C79.0527-15.9668 63.3789-0.244141 44.043-0.244141ZM22.3145-39.2578C22.3145-38.6719 22.7539-38.2812 23.3398-38.2812C23.6328-38.2812 23.8281-38.3789 24.0234-38.5742L42.334-53.9062C43.6523-54.9805 44.5801-54.9805 45.8496-53.9062L64.0137-38.5742C64.3555-38.3789 64.502-38.2812 64.6973-38.2812C65.2832-38.2812 65.7715-38.6719 65.7715-39.2578C65.7715-39.6484 65.5762-39.8926 65.2832-40.1367L60.6445-44.0918L60.6445-51.709C60.6445-52.1973 60.3516-52.4902 59.9121-52.4902L58.4961-52.4902C58.0566-52.4902 57.7637-52.1973 57.7637-51.709L57.7637-46.4844L47.168-55.4199C45.3125-56.9824 42.8711-56.9824 41.0156-55.4199L22.7539-40.1367C22.4609-39.8926 22.3145-39.6484 22.3145-39.2578ZM27.5391-20.8496C27.5391-18.75 28.7598-17.4805 30.9082-17.4805L57.2754-17.4805C59.375-17.4805 60.6445-18.75 60.6445-20.8496L60.6445-39.8926L45.3125-52.7832C44.4336-53.5156 43.6523-53.5156 42.7734-52.7832L27.5391-39.9414ZM48.9746-19.3848L39.1602-19.3848L39.1602-32.373C39.1602-33.1055 39.6484-33.4961 40.2832-33.4961L47.8027-33.4961C48.4863-33.4961 48.9746-33.1055 48.9746-32.373Z"/>
  </g>
 </g>
</svg>
